<svg xmlns="http://www.w3.org/2000/svg" xmlns:xlink="http://www.w3.org/1999/xlink" viewBox="0,0,256,256" width="48px" height="48px" fill-rule="none"><g fill="#ffffff" fill-rule="none" stroke="none" stroke-width="1" stroke-linecap="butt" stroke-linejoin="miter" stroke-miterlimit="10" stroke-dasharray="" stroke-dashoffset="0" font-family="none" font-weight="none" font-size="none" text-anchor="none" style="mix-blend-mode: normal"><g transform="scale(10.66667,10.66667)"><path d="M23,23c-1.125,-1.125 -1.875,-1.75 -3.25,-2.625c-2.274,-1.447 -2.75,-2.375 -2.75,-2.375c0,0 0.625,-0.875 2.42,-1.319c-1.427,-1.337 -2.957,-1.847 -2.976,-1.854l-0.548,-0.178l-0.124,-0.565c-0.008,-0.039 -0.865,-3.952 -3.189,-6.974c-0.984,-1.279 -1.953,-1.981 -3.704,-2.681c-0.96,-0.384 -2.319,-0.415 -2.766,-0.425l-0.342,-0.012l-0.173,-0.076c-0.049,-0.022 -0.141,-0.07 -0.267,-0.139c-0.386,-0.213 -1.411,-0.777 -2.206,-0.777l-0.001,0.004l-0.113,0.078c-0.01,0.275 0.331,0.704 0.514,0.934c0.094,0.118 0.177,0.223 0.24,0.314l0.126,0.166c0.225,0.294 0.48,0.627 0.655,1.006c0.048,0.114 0.1,0.283 0.165,0.516c0.133,0.478 0.381,1.368 0.717,1.944c0.295,0.506 0.798,1.235 0.802,1.242l0.247,0.357l-0.094,0.424c-0.107,0.487 -0.383,1.888 -0.383,2.515c0,0.635 0.084,1.151 0.266,1.609c0.609,-1.484 1.325,-2.211 1.325,-2.211c0.659,2.727 4.409,7.102 4.409,7.102c-2,-0.875 -3.293,-2.113 -4.058,-3.1c-0.172,0.95 -0.809,1.1 -1.192,1.1c-1.079,0 -1.717,-1 -1.926,-1.328c-0.565,-0.918 -0.824,-1.922 -0.824,-3.172c0,-0.712 0.214,-1.884 0.341,-2.52c-0.19,-0.285 -0.454,-0.689 -0.642,-1.011c-0.466,-0.799 -0.758,-1.85 -0.915,-2.415c-0.034,-0.122 -0.06,-0.218 -0.079,-0.273c-0.058,-0.12 -0.241,-0.359 -0.402,-0.57l-0.162,-0.214c-0.06,-0.085 -0.117,-0.156 -0.18,-0.235c-0.36,-0.452 -0.961,-1.208 -0.96,-2.139c0.001,-0.281 0.056,-0.553 0.163,-0.81c0.339,-0.832 1.055,-1.313 1.961,-1.313c1.284,0 2.562,0.69 3.137,1.006c0.657,0.016 2.133,0.075 3.36,0.565c2.072,0.829 3.347,1.76 4.546,3.319c2.095,2.724 3.098,5.975 3.43,7.241c0.956,0.408 2.965,1.457 4.463,3.534l0.909,1.26c0,0 -1.47,0.2 -2.666,0.583c1.571,1.992 2.696,4.492 2.696,4.492z" fill-rule="nonzero"></path><path d="M18.626,17.995l1.374,-0.439c0.405,-0.13 0.834,-0.239 1.234,-0.329c-1.383,-1.904 -3.276,-2.855 -4.029,-3.176l-0.45,-0.192l-0.125,-0.474c-0.318,-1.211 -1.271,-4.307 -3.255,-6.885c-1.093,-1.421 -2.211,-2.235 -4.125,-3c-1.12,-0.448 -2.544,-0.482 -3.013,-0.494l-0.243,-0.006l-0.214,-0.117c-0.439,-0.241 -1.605,-0.883 -2.655,-0.883c-0.5,0 -0.848,0.232 -1.035,0.69c-0.059,0.143 -0.088,0.288 -0.089,0.436c-0.001,0.579 0.446,1.14 0.741,1.512c0.094,0.118 0.154,0.195 0.217,0.285l0.141,0.185c0.25,0.325 0.41,0.54 0.506,0.739l0.044,0.108c0.02,0.056 0.045,0.145 0.076,0.256c0.166,0.596 0.436,1.566 0.837,2.255c0.179,0.306 0.429,0.688 0.61,0.959l0.23,0.345l-0.082,0.407c-0.204,1.019 -0.321,1.866 -0.321,2.323c0,1.072 0.208,1.889 0.675,2.648c0.229,0.358 0.599,0.852 1.075,0.852c0.102,0 0.157,0 0.208,-0.279l0.4,-2.208l1.374,1.774c1.893,2.463 3.268,3.713 3.268,3.713c0,0 1.222,0.752 3.847,1.502c2.015,0.575 4.403,0.998 7.153,2.498c-0.011,-0.024 -0.889,-1.214 -3.481,-3.873c-0.251,-0.258 -0.893,-1.132 -0.893,-1.132z" fill-rule="nonzero" opacity="0.3"></path><path d="M7.187,5c0,0 -0.437,0 -0.937,0.125l1.375,1.873c0.375,-0.498 0.375,-1.081 0.375,-1.081c0,0 -0.25,-0.667 -0.813,-0.917" fill-rule="evenodd"></path></g></g></svg>